<?xml version="1.0" standalone="no"?>
<!DOCTYPE svg PUBLIC "-//W3C//DTD SVG 20010904//EN"
 "http://www.w3.org/TR/2001/REC-SVG-20010904/DTD/svg10.dtd">
<svg version="1.0" xmlns="http://www.w3.org/2000/svg"
 width="260.000000pt" height="260.000000pt" viewBox="0 0 260.000000 260.000000"
 preserveAspectRatio="xMidYMid meet">
<metadata>
Created by potrace 1.11, written by Peter Selinger 2001-2013
</metadata>
<g transform="translate(0.000000,260.000000) scale(0.100000,-0.100000)"
fill="#000000" stroke="none">
<path d="M340 2177 c-162 -170 -295 -448 -328 -692 -9 -67 -8 -306 1 -377 19
-136 79 -314 152 -443 36 -65 126 -189 184 -253 l30 -33 73 73 c108 108 103
97 57 148 -133 147 -234 369 -255 558 -36 319 48 600 248 834 l49 57 -85 85
-85 85 -41 -42z"/>
<path d="M2133 2134 l-82 -84 70 -88 c83 -102 168 -269 199 -386 85 -333 13
-676 -199 -939 l-71 -88 85 -84 84 -84 28 28 c117 119 240 328 293 496 56 179
74 436 43 604 -15 83 -48 215 -62 246 -52 119 -123 246 -179 320 -60 79 -118
147 -125 144 -1 0 -39 -38 -84 -85z"/>
<path d="M696 1798 c-81 -93 -156 -262 -173 -392 -11 -81 -6 -178 11 -268 22
-108 97 -264 164 -338 l49 -54 81 82 c45 45 82 86 82 91 0 4 -13 23 -29 42
-72 82 -112 192 -116 319 -5 139 30 250 110 351 19 24 35 47 35 51 0 9 -156
168 -164 168 -2 0 -25 -24 -50 -52z"/>
<path d="M1767 1766 l-85 -83 29 -34 c151 -175 169 -434 44 -634 -25 -40 -51
-78 -59 -84 -12 -10 -2 -24 57 -84 107 -107 102 -104 132 -70 14 15 45 57 68
93 164 246 173 573 23 825 -34 58 -108 154 -118 155 -4 0 -45 -38 -91 -84z"/>
</g>
</svg>
