<?xml version="1.0" encoding="UTF-8" standalone="no"?>
<svg
   xmlns:dc="http://purl.org/dc/elements/1.1/"
   xmlns:cc="http://creativecommons.org/ns#"
   xmlns:rdf="http://www.w3.org/1999/02/22-rdf-syntax-ns#"
   xmlns:svg="http://www.w3.org/2000/svg"
   xmlns="http://www.w3.org/2000/svg"
   xmlns:sodipodi="http://sodipodi.sourceforge.net/DTD/sodipodi-0.dtd"
   xmlns:inkscape="http://www.inkscape.org/namespaces/inkscape"
   id="a120a2c5-c99d-4e41-8f76-3ae6a97ef94f"
   data-name="Layer 1"
   width="645"
   height="413.27591"
   viewBox="0 0 644.99999 413.27592"
   version="1.1"
   sodipodi:docname="undraw_spreadsheet_69ax.svg"
   inkscape:version="0.92.4 (5da689c313, 2019-01-14)">
  <metadata
     id="metadata61">
    <rdf:RDF>
      <cc:Work
         rdf:about="">
        <dc:format>image/svg+xml</dc:format>
        <dc:type
           rdf:resource="http://purl.org/dc/dcmitype/StillImage" />
      </cc:Work>
    </rdf:RDF>
  </metadata>
  <defs
     id="defs59" />
  <sodipodi:namedview
     pagecolor="#ffffff"
     bordercolor="#666666"
     borderopacity="1"
     objecttolerance="10"
     gridtolerance="10"
     guidetolerance="10"
     inkscape:pageopacity="0"
     inkscape:pageshadow="2"
     inkscape:window-width="1366"
     inkscape:window-height="705"
     id="namedview57"
     showgrid="false"
     inkscape:zoom="1.163193"
     inkscape:cx="327.76688"
     inkscape:cy="426.01624"
     inkscape:window-x="-8"
     inkscape:window-y="-8"
     inkscape:window-maximized="1"
     inkscape:current-layer="a120a2c5-c99d-4e41-8f76-3ae6a97ef94f" />
  <rect
     x="0.27529907"
     y="0.3655"
     width="644.72473"
     height="412.9104"
     id="rect2"
     style="fill:#e6e6e6" />
  <rect
     x="18.71106"
     y="52.154758"
     width="607.85321"
     height="336.6933"
     id="rect4"
     style="fill:#ffffff" />
  <rect
     x="0"
     width="644.72473"
     height="27.39027"
     id="rect6"
     y="0"
     style="fill:#ffd300" />
  <circle
     cx="20.354248"
     cy="14.00335"
     r="5.07657"
     id="circle8"
     style="fill:#ffffff" />
  <circle
     cx="39.623657"
     cy="14.00335"
     r="5.07657"
     id="circle10"
     style="fill:#ffffff" />
  <circle
     cx="58.893066"
     cy="14.00335"
     r="5.07657"
     id="circle12"
     style="fill:#ffffff" />
  <rect
     x="78.947113"
     y="109.06773"
     width="61"
     height="27"
     id="rect14"
     style="fill:#e6e6e6" />
  <rect
     x="200.94711"
     y="165.06773"
     width="61"
     height="27"
     id="rect16"
     style="fill:#e6e6e6" />
  <rect
     x="78.947113"
     y="249.06773"
     width="61"
     height="27"
     id="rect18"
     style="fill:#ffd300" />
  <rect
     x="200.94711"
     y="305.06772"
     width="61"
     height="27"
     id="rect20"
     style="fill:#ffd300" />
  <rect
     x="504.94711"
     y="333.06772"
     width="61"
     height="27"
     id="rect22"
     style="fill:#ffd300" />
  <rect
     x="443.94711"
     y="221.06773"
     width="61"
     height="27"
     id="rect24"
     style="fill:#e6e6e6" />
  <rect
     x="261.94711"
     y="221.06773"
     width="122"
     height="27"
     id="rect26"
     style="fill:#ffd300" />
  <rect
     x="261.94711"
     y="80.067734"
     width="122"
     height="27"
     id="rect28"
     style="fill:#ffd300" />
  <path
     d="m 17.94712,51.06773 v 339 h 609.99996 v -339 z m 607.99996,28.08349 h -58.7998 V 53.06773 h 58.7998 z m -362.79977,196.583 v -26.083 h 119.59961 v 26.083 z m 119.59961,2 v 26.0835 H 263.14731 v -26.0835 z m 0,-112.333 v 26.083 H 263.14731 v -26.083 z m -119.59961,-2 v -26.08349 h 119.59961 v 26.08349 z m 0,56.16651 v -26.0835 h 119.59961 v 26.0835 z m 119.59961,2 v 26.08349 H 263.14731 v -26.08349 z m -121.59961,-30.0835 h -58.7998 v -26.083 h 58.7998 z m 0,2 v 26.0835 h -58.7998 v -26.0835 z m 0,28.0835 v 26.08349 h -58.7998 v -26.08349 z m 0,28.08349 v 26.083 h -58.7998 v -26.083 z m 123.59961,0 h 58.7998 v 26.083 h -58.7998 z m 0,-2 v -26.08349 h 58.7998 v 26.08349 z m 0,-28.08349 v -26.0835 h 58.7998 v 26.0835 z m 0,-28.0835 v -26.083 h 58.7998 v 26.083 z m 0,-28.083 v -26.0835 h 58.7998 v 26.08349 z m 0,-28.08349 v -26.0835 h 58.7998 v 26.0835 z m -2,0 H 263.14731 v -26.0835 h 119.59961 z m -121.59961,0 h -58.7998 v -26.0835 h 58.7998 z m 0,2 v 26.08349 h -58.7998 v -26.0835 z m -60.7998,26.08349 h -58.80079 v -26.0835 h 58.80079 z m 0,2 v 26.083 h -58.80079 v -26.083 z m 0,28.083 v 26.0835 h -58.80079 v -26.0835 z m 0,28.0835 v 26.08349 h -58.80079 v -26.08349 z m 0,28.08349 v 26.083 h -58.80079 v -26.083 z m 0,28.083 v 26.0835 h -58.80079 v -26.0835 z m 2,0 h 58.7998 v 26.0835 h -58.7998 z m 58.7998,28.0835 v 26.083 h -58.7998 v -26.083 z m 2,0 h 119.59961 v 26.083 H 263.14731 Z m 121.59961,0 h 58.7998 v 26.083 h -58.7998 z m 0,-2 v -26.0835 h 58.7998 v 26.0835 z m 60.7998,-26.0835 h 58.80079 v 26.0835 h -58.80079 z m 0,-2 v -26.083 h 58.80079 v 26.083 z m 0,-28.083 v -26.08349 h 58.80079 v 26.08349 z m 0,-28.08349 v -26.0835 h 58.80079 v 26.0835 z m 0,-28.0835 v -26.083 h 58.80079 v 26.083 z m 0,-28.083 v -26.0835 h 58.80079 v 26.08349 z m 0,-28.08349 v -26.0835 h 58.80079 v 26.0835 z m 0,-28.0835 v -26.083 h 58.80079 v 26.083 z m -2,0 h -58.7998 v -26.083 h 58.7998 z m -60.7998,0 H 263.14731 v -26.083 h 119.59961 z m -121.59961,0 h -58.7998 v -26.083 h 58.7998 z m -60.7998,0 h -58.80079 v -26.083 h 58.80079 z m 0,2 v 26.0835 h -58.80079 v -26.0835 z m -60.80079,26.0835 h -58.7998 v -26.0835 h 58.7998 z m 0,2 v 26.08349 h -58.7998 v -26.0835 z m 0,28.08349 v 26.083 h -58.7998 v -26.083 z m 0,28.083 v 26.0835 h -58.7998 v -26.0835 z m 0,28.0835 v 26.08349 h -58.7998 v -26.08349 z m 0,28.08349 v 26.083 h -58.7998 v -26.083 z m 0,28.083 v 26.0835 h -58.7998 v -26.0835 z m 0,28.0835 v 26.083 h -58.7998 v -26.083 z m 2,0 h 58.80079 v 26.083 h -58.80079 z m 58.80079,28.083 v 26.084 h -58.80079 v -26.084 z m 2,0 h 58.7998 v 26.084 h -58.7998 z m 60.7998,0 h 119.59961 v 26.084 H 263.14731 Z m 121.59961,0 h 58.7998 v 26.084 h -58.7998 z m 60.7998,0 h 58.80079 v 26.084 h -58.80079 z m 0,-2 v -26.083 h 58.80079 v 26.083 z m 60.80079,-26.083 h 58.79977 v 26.083 h -58.79977 z m 0,-2 v -26.0835 h 58.79977 v 26.0835 z m 0,-28.0835 v -26.083 h 58.79977 v 26.083 z m 0,-28.083 v -26.08349 h 58.79977 v 26.08349 z m 0,-28.08349 v -26.0835 h 58.79977 v 26.0835 z m 0,-28.0835 v -26.083 h 58.79977 v 26.083 z m 0,-28.083 v -26.0835 h 58.79977 v 26.08349 z m 0,-28.08349 v -26.0835 h 58.79977 v 26.0835 z m 0,-28.0835 v -26.083 h 58.79977 v 26.083 z m 0,-28.083 V 53.06773 h 58.79977 v 26.08349 z m -2,0 H 445.54672 V 53.06773 h 58.80079 z m -60.80079,0 h -58.7998 V 53.06773 h 58.7998 z m -60.7998,0 H 263.14731 V 53.06773 h 119.59961 z m -121.59961,0 h -58.7998 V 53.06773 h 58.7998 z m -60.7998,0 H 141.54672 V 53.06773 h 58.80079 z m -60.80079,0 H 80.74692 V 53.06773 h 58.7998 z m 0,2 v 26.083 h -58.7998 v -26.083 z m -60.7998,26.083 h -58.7998 v -26.083 h 58.7998 z m 0,2 v 26.0835 h -58.7998 v -26.0835 z m 0,28.0835 v 26.08349 h -58.7998 v -26.0835 z m 0,28.08349 v 26.083 h -58.7998 v -26.083 z m 0,28.083 v 26.0835 h -58.7998 v -26.0835 z m 0,28.0835 v 26.08349 h -58.7998 v -26.08349 z m 0,28.08349 v 26.083 h -58.7998 v -26.083 z m 0,28.083 v 26.0835 h -58.7998 v -26.0835 z m 0,28.0835 v 26.083 h -58.7998 v -26.083 z m 0,28.083 v 26.084 h -58.7998 v -26.084 z m 2,0 h 58.7998 v 26.084 h -58.7998 z m 58.7998,28.084 v 26.083 h -58.7998 v -26.083 z m 2,0 h 58.80079 v 26.083 h -58.80079 z m 60.80079,0 h 58.7998 v 26.083 h -58.7998 z m 60.7998,0 h 119.59961 v 26.083 H 263.14731 Z m 121.59961,0 h 58.7998 v 26.083 h -58.7998 z m 60.7998,0 h 58.80079 v 26.083 h -58.80079 z m 60.80079,0 h 58.79977 v 26.083 h -58.79977 z m 0,-2 v -26.084 h 58.79977 v 26.084 z m 60.79977,-26.084 h 58.7998 v 26.084 h -58.7998 z m 0,-2 v -26.083 h 58.7998 v 26.083 z m 0,-28.083 v -26.0835 h 58.7998 v 26.0835 z m 0,-28.0835 v -26.083 h 58.7998 v 26.083 z m 0,-28.083 v -26.08349 h 58.7998 v 26.08349 z m 0,-28.08349 v -26.0835 h 58.7998 v 26.0835 z m 0,-28.0835 v -26.083 h 58.7998 v 26.083 z m 0,-28.083 v -26.0835 h 58.7998 v 26.08349 z m 0,-28.08349 v -26.0835 h 58.7998 v 26.0835 z m 0,-28.0835 v -26.083 h 58.7998 v 26.083 z M 78.74692,53.06774 v 26.08349 h -58.7998 v -26.0835 z m -58.7998,308.917 h 58.7998 v 26.083 h -58.7998 z m 547.20016,26.083 v -26.083 h 58.7998 v 26.083 z"
     id="path30"
     inkscape:connector-curvature="0"
     style="fill:#e6e6e6" />
</svg>
